<?xml version="1.0" encoding="utf-8"?>
<!-- Generator: Adobe Illustrator 15.1.0, SVG Export Plug-In . SVG Version: 6.00 Build 0)  -->
<!DOCTYPE svg PUBLIC "-//W3C//DTD SVG 1.1//EN" "http://www.w3.org/Graphics/SVG/1.1/DTD/svg11.dtd">
<svg version="1.1" id="Capa_1" xmlns="http://www.w3.org/2000/svg" xmlns:xlink="http://www.w3.org/1999/xlink" x="0px" y="0px"
	 width="37.3px" height="32px" viewBox="0 0 37.3 32" enable-background="new 0 0 37.3 32" xml:space="preserve">
<path fill="#D2181B" d="M14.6,30.6L1.9,17.9c-1-1-1-2.6,0-3.6L14.6,1.7c1-1,2.6-1,3.6,0c1,1,1,2.6,0,3.6l-8.4,8.4h24.3
	c1.4,0,2.5,1.1,2.5,2.5c0,1.4-1.1,2.5-2.5,2.5H9.8l8.4,8.4c0.5,0.5,0.7,1.1,0.7,1.8s-0.2,1.3-0.7,1.8C17.2,31.6,15.6,31.6,14.6,30.6
	"/>
</svg>
