<?xml version="1.0" encoding="utf-8"?>
<!-- Generator: Adobe Illustrator 15.1.0, SVG Export Plug-In . SVG Version: 6.00 Build 0)  -->
<!DOCTYPE svg PUBLIC "-//W3C//DTD SVG 1.1//EN" "http://www.w3.org/Graphics/SVG/1.1/DTD/svg11.dtd">
<svg version="1.1" id="Capa_1" xmlns="http://www.w3.org/2000/svg" xmlns:xlink="http://www.w3.org/1999/xlink" x="0px" y="0px"
	 width="78.3px" height="79px" viewBox="0 0 78.3 79" enable-background="new 0 0 78.3 79" xml:space="preserve">
<g>
	<g>
		<g>
			<path fill="#D2181B" d="M74,22.4c-1.9,0-3.4-1.5-3.4-3.4c0-0.6-0.5-1-1-1c-0.6,0-1,0.5-1,1c0,1.9-1.5,3.4-3.4,3.4
				c-0.6,0-1,0.5-1,1c0,0.6,0.5,1,1,1c1.9,0,3.4,1.5,3.4,3.4c0,0.6,0.5,1,1,1c0.6,0,1-0.5,1-1c0-1.9,1.5-3.4,3.4-3.4
				c0.6,0,1-0.5,1-1C75,22.8,74.5,22.4,74,22.4z M69.5,24.6c-0.3-0.5-0.8-0.9-1.2-1.2c0.5-0.3,0.9-0.8,1.2-1.2
				c0.3,0.5,0.8,0.9,1.2,1.2C70.3,23.8,69.9,24.2,69.5,24.6z"/>
		</g>
	</g>
	<g>
		<g>
			<path fill="#D2181B" d="M13.9,22.4c-1.9,0-3.4-1.5-3.4-3.4c0-0.6-0.5-1-1-1c-0.6,0-1,0.5-1,1c0,1.9-1.5,3.4-3.4,3.4
				c-0.6,0-1,0.5-1,1c0,0.6,0.5,1,1,1c1.9,0,3.4,1.5,3.4,3.4c0,0.6,0.5,1,1,1c0.6,0,1-0.5,1-1c0-1.9,1.5-3.4,3.4-3.4
				c0.6,0,1-0.5,1-1C15,22.8,14.5,22.4,13.9,22.4z M9.5,24.6c-0.3-0.5-0.8-0.9-1.2-1.2c0.5-0.3,0.9-0.8,1.2-1.2
				c0.3,0.5,0.8,0.9,1.2,1.2C10.3,23.8,9.8,24.2,9.5,24.6z"/>
		</g>
	</g>
	<g>
		<g>
			<path fill="#D2181B" d="M45.1,9c-2.5,0-4.5-2-4.5-4.5c0-0.6-0.5-1-1-1c-0.6,0-1,0.5-1,1C38.5,7,36.4,9,34,9c-0.6,0-1,0.5-1,1
				c0,0.6,0.5,1,1,1c2.5,0,4.5,2,4.5,4.5c0,0.6,0.5,1,1,1c0.6,0,1-0.5,1-1c0-2.5,2-4.5,4.5-4.5c0.6,0,1-0.5,1-1
				C46.1,9.5,45.6,9,45.1,9z M39.5,12.1c-0.5-0.8-1.2-1.5-2-2c0.8-0.5,1.5-1.2,2-2c0.5,0.8,1.2,1.5,2,2C40.7,10.6,40,11.3,39.5,12.1
				z"/>
		</g>
	</g>
	<g>
		<g>
			<path fill="#D2181B" d="M61.2,38.6l-4.1-11.5c-0.3-0.9-1.1-1.4-2-1.4H23.6c-0.9,0-1.7,0.6-2,1.4l-4.1,11.5
				c-0.2,0.7,0.3,1.4,1,1.4h41.7c0.3,0,0.7-0.2,0.8-0.4C61.3,39.3,61.3,39,61.2,38.6z M20,37.9l3.6-10.1c0,0,0,0,0.1,0h31.5
				c0,0,0.1,0,0.1,0l3.6,10.1H20z"/>
		</g>
	</g>
	<g>
		<g>
			<path fill="#D2181B" d="M59.4,52.4c-3.7,0-6.6,1.9-6.6,4.4s2.9,4.4,6.6,4.4s6.6-1.9,6.6-4.4S63.1,52.4,59.4,52.4z M59.4,59.1
				c-2.6,0-4.5-1.2-4.5-2.3s1.9-2.3,4.5-2.3s4.5,1.2,4.5,2.3S62,59.1,59.4,59.1z"/>
		</g>
	</g>
	<g>
		<g>
			<path fill="#D2181B" d="M19.4,52.4c-3.7,0-6.6,1.9-6.6,4.4s2.9,4.4,6.6,4.4c3.7,0,6.6-1.9,6.6-4.4S23.1,52.4,19.4,52.4z
				 M19.4,59.1c-2.6,0-4.5-1.2-4.5-2.3s1.9-2.3,4.5-2.3c2.6,0,4.5,1.2,4.5,2.3S21.9,59.1,19.4,59.1z"/>
		</g>
	</g>
	<g>
		<g>
			<path fill="#D2181B" d="M72.7,36.8h-5.6c-0.5,0-0.9,0.3-1,0.8l-0.7,2.9L60.3,26c-0.8-2.2-2.9-3.7-5.2-3.7H23.6
				c-2.3,0-4.4,1.5-5.2,3.7l-5.1,14.5l-0.7-2.9c-0.1-0.5-0.5-0.8-1-0.8H6c-0.6,0-1,0.5-1,1v4.4c0,0.6,0.5,1,1,1h5.8l-3.6,5
				c-0.7,0.9-1,2-1,3.2v13c0,1.8,0.9,3.4,2.2,4.4c0,0,0,0,0,0v3.3c0,1.2,1,2.2,2.2,2.2h6.7c1.2,0,2.2-1,2.2-2.2V70h37.9v2.3
				c0,1.2,1,2.2,2.2,2.2h6.7c1.2,0,2.2-1,2.2-2.2V69c0,0,0,0,0,0c1.3-1,2.2-2.6,2.2-4.4v-13c0-1.1-0.4-2.3-1-3.2l-3.6-5h5.8
				c0.6,0,1-0.5,1-1v-4.4C73.8,37.3,73.3,36.8,72.7,36.8z M7.1,41.3v-2.4h3.7l0.6,2.4H7.1z M18.3,72.3
				C18.3,72.4,18.3,72.4,18.3,72.3l-6.7,0.1c0,0-0.1,0-0.1-0.1V70h1.2h5.6V72.3L18.3,72.3z M67.2,72.3
				C67.2,72.4,67.2,72.4,67.2,72.3l-6.7,0.1c0,0-0.1,0-0.1-0.1V70H66h1.2V72.3z M66,68H12.7c-1.5,0-2.8-1-3.2-2.4h59.8
				C68.8,67,67.6,68,66,68z M48.3,56.7v2.4H30.4v-2.4H48.3z M30.6,54.6c0.4-1.4,1.7-2.4,3.2-2.4h11.1c1.5,0,2.8,1,3.2,2.4H30.6z
				 M48.3,61.1v2.4H30.4v-2.4H48.3z M68.8,49.5c0.4,0.6,0.6,1.3,0.6,2v12h-19v-7.8c0-3-2.5-5.5-5.5-5.5H33.8c-3,0-5.5,2.5-5.5,5.5
				v7.8h-19v-12c0-0.7,0.2-1.4,0.6-2l4.4-6.2h38.4c0.6,0,1-0.5,1-1c0-0.6-0.5-1-1-1H15.3l5.1-14.5c0.5-1.4,1.8-2.3,3.2-2.3h31.5
				c1.4,0,2.7,0.9,3.2,2.3l5.1,14.5h-6.3c-0.6,0-1,0.5-1,1c0,0.6,0.5,1,1,1h7.2L68.8,49.5z M71.7,41.3h-4.3l0.6-2.4h3.7V41.3z"/>
		</g>
	</g>
	<g>
		<g>
			<path fill="#D2181B" d="M22.7,49.1H16c-0.6,0-1,0.5-1,1s0.5,1,1,1h6.7c0.6,0,1-0.5,1-1S23.3,49.1,22.7,49.1z"/>
		</g>
	</g>
	<g>
		<g>
			<path fill="#D2181B" d="M62.7,49.1H56c-0.6,0-1,0.5-1,1s0.5,1,1,1h6.7c0.6,0,1-0.5,1-1S63.3,49.1,62.7,49.1z"/>
		</g>
	</g>
</g>
</svg>
