<?xml version="1.0" encoding="utf-8"?>
<!-- Generator: Adobe Illustrator 15.1.0, SVG Export Plug-In . SVG Version: 6.00 Build 0)  -->
<!DOCTYPE svg PUBLIC "-//W3C//DTD SVG 1.1//EN" "http://www.w3.org/Graphics/SVG/1.1/DTD/svg11.dtd">
<svg version="1.1" id="Capa_1" xmlns="http://www.w3.org/2000/svg" xmlns:xlink="http://www.w3.org/1999/xlink" x="0px" y="0px"
	 width="78.3px" height="79px" viewBox="0 0 78.3 79" enable-background="new 0 0 78.3 79" xml:space="preserve">
<g id="surface1">
	<path fill="#D2181B" d="M33.1,43.5h5.2v2.6h-5.2V43.5z"/>
	<path fill="#D2181B" d="M77.2,39.6l-8.8-1.3c-1.6-1-3.3-1.9-5-2.6c-5.7-2.6-11.8-3.9-18-3.9h-1.5c-7.3,0-14.5,1.8-21,5.3l-4.4,2.4
		c-5.2,0.1-10.3,1.4-14.8,4c-1.8,1-3,3-3,5.1v7.7c0,0.7,0.6,1.3,1.3,1.3h4.3c1.4,4,5.8,6.1,9.8,4.7c2.2-0.8,4-2.5,4.7-4.7h34.5
		c1.4,4,5.8,6.1,9.8,4.7c2.2-0.8,4-2.5,4.7-4.7h0.5c0.2,0,0.3,0,0.5-0.1l4.2-1.7c1.9-0.7,3.1-2.6,3.1-4.6V40.9
		C78.3,40.3,77.8,39.7,77.2,39.6z M18.8,56.2c-0.6,2.8-3.3,4.6-6.1,4c-2.8-0.6-4.6-3.3-4-6.1c0.6-2.8,3.3-4.6,6.1-4
		c2.4,0.5,4.1,2.6,4.1,5.1C18.9,55.5,18.8,55.8,18.8,56.2z M42.1,55.1H21.5c0-4.3-3.5-7.8-7.7-7.8c-4.3,0-7.7,3.5-7.7,7.8H3.4v-6.4
		c0-1.2,0.6-2.3,1.7-2.9c4.2-2.4,9-3.7,13.8-3.7h23.2V55.1z M42.1,39.6H23.9l0.2-0.1c5.5-3,11.7-4.7,17.9-5V39.6z M44.7,34.5h0.7
		c5.2,0,10.4,1,15.2,2.9l-2.3,2.3H44.7V34.5z M67.9,56.2c-0.6,2.8-3.3,4.6-6.1,4c-2.8-0.6-4.6-3.3-4-6.1c0.6-2.8,3.3-4.6,6.1-4
		c2.4,0.5,4.1,2.6,4.1,5.1C68,55.5,67.9,55.8,67.9,56.2z M75.7,43.5h-3.9v2.6h3.9v5.3c0,1-0.6,1.8-1.5,2.2L70.5,55
		c0-0.1,0-0.2,0-0.4c0-0.1,0-0.3,0-0.4c0-0.1,0-0.3-0.1-0.4c0-0.1,0-0.3-0.1-0.4c0-0.1-0.1-0.3-0.1-0.4c0-0.1-0.1-0.2-0.1-0.4
		c0-0.1-0.1-0.2-0.1-0.4c0-0.1-0.1-0.2-0.1-0.4c0-0.1-0.1-0.2-0.2-0.3c-0.1-0.1-0.1-0.2-0.2-0.3c-0.1-0.1-0.1-0.2-0.2-0.3
		c-0.1-0.1-0.1-0.2-0.2-0.3c-0.1-0.1-0.1-0.2-0.2-0.3c-0.1-0.1-0.1-0.2-0.2-0.3c-0.1-0.1-0.2-0.2-0.2-0.3c-0.1-0.1-0.2-0.2-0.3-0.3
		c-0.1-0.1-0.2-0.2-0.3-0.2c-0.1-0.1-0.2-0.2-0.3-0.3c-0.1-0.1-0.2-0.2-0.3-0.2c-0.1-0.1-0.2-0.2-0.3-0.2c-0.1-0.1-0.2-0.1-0.3-0.2
		c-0.1-0.1-0.2-0.1-0.3-0.2c-0.1-0.1-0.2-0.1-0.4-0.2C66,48.1,65.9,48,65.8,48c-0.1,0-0.3-0.1-0.4-0.1c-0.1,0-0.2-0.1-0.3-0.1
		c-0.1,0-0.3-0.1-0.4-0.1c-0.1,0-0.2-0.1-0.3-0.1c-0.2,0-0.3-0.1-0.5-0.1c-0.1,0-0.2,0-0.3,0c-0.3,0-0.5,0-0.8,0
		c-4.3,0-7.7,3.5-7.8,7.7H44.7V42.2h14.2c0.3,0,0.7-0.1,0.9-0.4l3.3-3.3c1.4,0.7,2.8,1.4,4.1,2.2c0.2,0.1,0.3,0.2,0.5,0.2l7.9,1.1
		V43.5z"/>
</g>
</svg>
