<?xml version="1.0" encoding="utf-8"?>
<!-- Generator: Adobe Illustrator 15.1.0, SVG Export Plug-In . SVG Version: 6.00 Build 0)  -->
<!DOCTYPE svg PUBLIC "-//W3C//DTD SVG 1.1//EN" "http://www.w3.org/Graphics/SVG/1.1/DTD/svg11.dtd">
<svg version="1.1" id="Capa_1" xmlns="http://www.w3.org/2000/svg" xmlns:xlink="http://www.w3.org/1999/xlink" x="0px" y="0px"
	 width="78.3px" height="79px" viewBox="0 0 78.3 79" enable-background="new 0 0 78.3 79" xml:space="preserve">
<g>
	<g>
		<g>
			<path fill="#D2181B" d="M64.9,59.1C64.9,59.1,64.9,59.1,64.9,59.1c-1.1-2.7-3.8-3.6-6.9-2.6l-8.5,2.4c-0.5-1.5-1.7-2.8-3.5-3.4
				c0,0,0,0,0,0l-9.4-3.2c-0.8-1-3.2-3.6-7.8-3.6c-3.2,0-6,2.2-7.6,4.6H9.9c-0.7,0-1.2,0.5-1.2,1.2v15.4c0,0.7,0.5,1.2,1.2,1.2h7.3
				c0.7,0,1.2-0.5,1.2-1.2v-1.1h3.4c0.7,0,1.2-0.5,1.2-1.2v-0.3c2,0.2,2.6,0.5,4.5,1.6c1.4,0.8,3.5,2,7.3,3.8c0,0,0,0,0.1,0
				c0.7,0.3,2.2,0.7,3.9,0.7c1.2,0,2.6-0.2,4.1-0.9l18.8-6.7c0,0,0.1,0,0.1,0C63.6,64.9,66.3,62.6,64.9,59.1z M16,68.7h-4.8v-13H16
				V68.7z M20.6,66.4h-2.2V55.7h2.2V66.4z M60.8,63.5L42,70.3c0,0,0,0-0.1,0c0,0,0,0-0.1,0c-2.6,1.2-5.1,0.5-6.1,0.1
				c-3.7-1.7-5.7-2.8-7.1-3.6c-2-1.2-3-1.7-5.7-1.9V55c1.2-1.9,3.4-3.8,5.8-3.8c4.2,0,5.9,2.7,6,2.8c0.1,0.2,0.4,0.4,0.6,0.5
				l9.7,3.3c1.6,0.6,2.4,1.9,2,3.2c-0.2,0.6-0.6,1.1-1.1,1.4c-0.6,0.3-1.2,0.4-1.8,0.2l-11-3.5C32.7,59,32,59.3,31.8,60
				c-0.2,0.6,0.2,1.3,0.8,1.5l11,3.5c0,0,0,0,0,0c0.4,0.1,0.9,0.2,1.3,0.2c0.8,0,1.6-0.2,2.3-0.6c1.1-0.6,1.9-1.7,2.3-2.9
				c0-0.1,0.1-0.2,0.1-0.3l9.2-2.5c1.3-0.5,3.1-0.6,3.8,1.2C63.5,62.1,61.4,63.3,60.8,63.5z"/>
		</g>
	</g>
	<g>
		<g>
			<path fill="#D2181B" d="M70.1,14.9h-7.3c-0.7,0-1.2,0.5-1.2,1.2v1.1h-3.4c-0.7,0-1.2,0.5-1.2,1.2v0.4c-2-0.2-2.6-0.5-4.5-1.6
				c-1.4-0.8-3.5-2-7.3-3.7c0,0,0,0-0.1,0c-1.2-0.5-4.5-1.5-8,0.1l-4.9,1.8L28,11.2c-0.5-0.5-1.3-0.5-1.7,0L12.7,24.8
				c-0.4,0.4-0.5,1.2,0,1.7l23.3,23.3c0.4,0.4,1.2,0.5,1.7,0l12.4-12.4c0.3,0,0.7,0,1,0c3.2,0,6-2.2,7.6-4.6h11.3
				c0.7,0,1.2-0.5,1.2-1.2V16.2C71.3,15.5,70.8,14.9,70.1,14.9z M27.2,13.8l2.8,2.8c-0.8,0.5-1.8,0.8-2.8,0.8c-1,0-2-0.3-2.8-0.8
				L27.2,13.8z M18.1,28.4l-2.8-2.8l2.8-2.8c0.5,0.8,0.8,1.8,0.8,2.8C18.8,26.6,18.6,27.6,18.1,28.4z M36.8,47.2L34,44.4
				c1.7-1.1,3.9-1.1,5.6,0L36.8,47.2z M41.4,42.6c-2.7-2-6.4-2-9.1,0L19.8,30.2c1-1.3,1.5-2.9,1.5-4.6c0-1.7-0.5-3.2-1.5-4.5
				l2.8-2.8c1.3,1,2.9,1.5,4.6,1.5s3.2-0.5,4.6-1.5l2.6,2.6c-0.6,0.1-1.1,0.3-1.6,0.6c-0.9,0.5-1.6,1.2-2,2.1
				c-1.4,0.3-2.7,0.9-3.7,1.9c-2.7,2.7-2.7,7.1,0,9.9c1.4,1.4,3.1,2,4.9,2c1.8,0,3.6-0.7,4.9-2c0.9-0.9,1.5-2,1.8-3.2l4.1,1.4
				c-0.5,2.2,0,4.4,1.3,6.2L41.4,42.6z M33.9,30.6C33.9,30.6,33.9,30.6,33.9,30.6l2.5,0.8c-0.2,0.8-0.6,1.6-1.2,2.2
				c-1.8,1.8-4.6,1.8-6.4,0c-1.8-1.8-1.8-4.6,0-6.4c0.4-0.4,0.9-0.8,1.5-1C30.5,28.2,31.8,29.8,33.9,30.6z M45.9,38.1
				c-0.5-0.8-0.7-1.6-0.8-2.5c0.6,0.4,1.3,0.8,2.2,1.2L45.9,38.1z M57,31.1c-1.2,1.9-3.4,3.8-5.8,3.8c-0.5,0-0.9,0-1.3-0.1
				c0,0,0,0,0,0c-2.6-0.4-4.1-1.9-4.5-2.5c0,0-0.1-0.2-0.1-0.2c-0.1-0.3-0.4-0.5-0.7-0.6l-9.7-3.3c-1.6-0.6-2.4-1.9-2-3.2h0
				c0,0,0,0,0,0c0.2-0.6,0.6-1.1,1.1-1.4c0.6-0.3,1.2-0.4,1.8-0.2l11,3.5c0.6,0.2,1.3-0.2,1.5-0.8c0.2-0.6-0.2-1.3-0.8-1.5l-8.7-2.8
				l-0.1-0.1c0,0,0,0,0,0l-4.5-4.5l3.9-1.4c0,0,0,0,0,0c0,0,0,0,0,0c0,0,0,0,0,0c2.6-1.2,5.1-0.5,6.1-0.1c3.7,1.7,5.7,2.8,7.1,3.6
				c2,1.2,3,1.7,5.7,1.9V31.1z M61.6,30.4h-2.2V19.7h2.2V30.4z M68.9,30.4H64v-13h4.8V30.4z"/>
		</g>
	</g>
</g>
</svg>
