<svg xmlns="http://www.w3.org/2000/svg" xmlns:xlink="http://www.w3.org/1999/xlink" version="1.1" x="0px" y="0px" viewBox="0 0 512 640" style="enable-background:new 0 0 512 512;" xml:space="preserve"><g><path d="M229.2,377.1c-19.7,0-35.8,16.1-35.8,35.8s16.1,35.8,35.8,35.8s35.8-16.1,35.8-35.8S248.9,377.1,229.2,377.1z M229.2,428.7   c-8.7,0-15.8-7.1-15.8-15.8s7.1-15.8,15.8-15.8s15.8,7.1,15.8,15.8S237.9,428.7,229.2,428.7z"/><path d="M477.5,320.3l-185,60.9c-11.7-23.1-35.6-39.1-63.3-39.1c-4.2,0-8.3,0.4-12.3,1.1L128.1,73.6c-5.6-17-20-29.8-37.5-33.3   L33.4,28.5c-5.4-1.1-10.7,2.4-11.8,7.8C20.5,41.8,24,47,29.4,48.1l57.2,11.7c10.5,2.1,19.1,9.8,22.5,20l88.8,269.5   c-23.4,11.6-39.5,35.7-39.5,63.5c0,39,31.8,70.8,70.8,70.8s70.8-31.8,70.8-70.8c0-4.4-0.4-8.6-1.2-12.8l184.9-60.8   c5.2-1.7,8.1-7.4,6.4-12.6S482.7,318.5,477.5,320.3z M229.2,463.7c-28,0-50.8-22.8-50.8-50.8s22.8-50.8,50.8-50.8   s50.8,22.8,50.8,50.8S257.2,463.7,229.2,463.7z"/><path d="M207,197.5c0.1,0.6,0.2,1.1,0.4,1.7c0.2,0.6,0.4,1.1,0.7,1.6l40,121.6c2.8,8.5,8.7,15.4,16.7,19.4   c4.8,2.4,9.9,3.6,15.1,3.6c3.5,0,7.1-0.6,10.5-1.7l162.5-53.5c17.5-5.8,27.1-24.7,21.3-42.3L423.2,93c-2.8-8.5-8.7-15.4-16.7-19.4   s-17.1-4.7-25.6-1.9l-162.5,53.5c-8.5,2.8-15.4,8.7-19.4,16.7s-4.7,17.1-1.9,25.6L207,197.5z M446.6,271.2l-162.5,53.5   c-3.4,1.1-7.1,0.9-10.3-0.8c-3.2-1.6-5.6-4.4-6.7-7.8l-37.4-113.7l188.1-61.9l37.4,113.7C457.5,261.2,453.6,268.9,446.6,271.2z    M224.7,144.2l162.5-53.5c1.4-0.5,2.8-0.7,4.2-0.7c2.1,0,4.2,0.5,6.1,1.5c3.2,1.6,5.6,4.4,6.7,7.8l7.3,22.2l-188.1,61.9l-7.3-22.2   C213.7,154.1,217.6,146.5,224.7,144.2z"/></g><text x="0" y="527" fill="#000000" font-size="5px" font-weight="bold" font-family="'Helvetica Neue', Helvetica, Arial-Unicode, Arial, Sans-serif">Created by Alexander</text><text x="0" y="532" fill="#000000" font-size="5px" font-weight="bold" font-family="'Helvetica Neue', Helvetica, Arial-Unicode, Arial, Sans-serif">from the Noun Project</text></svg>