<?xml version="1.0" encoding="utf-8"?>
<!-- Generator: Adobe Illustrator 15.1.0, SVG Export Plug-In . SVG Version: 6.00 Build 0)  -->
<!DOCTYPE svg PUBLIC "-//W3C//DTD SVG 1.1//EN" "http://www.w3.org/Graphics/SVG/1.1/DTD/svg11.dtd">
<svg version="1.1" id="Capa_1" xmlns="http://www.w3.org/2000/svg" xmlns:xlink="http://www.w3.org/1999/xlink" x="0px" y="0px"
	 width="78.3px" height="79px" viewBox="0 0 78.3 79" enable-background="new 0 0 78.3 79" xml:space="preserve">
<g>
	<path fill="#D2181B" d="M46.1,24.1v2.3c0,3.9,3.2,7,7,7c3.9,0,7-3.2,7-7v-2.3c0.6,0,1.2-0.5,1.2-1.2c0-0.6-0.5-1.2-1.2-1.2h-2.3
		c-0.6,0-1.2,0.5-1.2,1.2c0,0.7,0.5,1.2,1.2,1.2v2.3c0,2.6-2.1,4.7-4.7,4.7c-2.6,0-4.7-2.1-4.7-4.7v-2.3c0.7,0,1.2-0.5,1.2-1.2
		c0-0.6-0.5-1.2-1.2-1.2h-2.3c-0.6,0-1.2,0.5-1.2,1.2C44.9,23.6,45.5,24.1,46.1,24.1z"/>
	<path fill="#D2181B" d="M22,70.1c0.2,0.2,0.5,0.3,0.8,0.3c0.3,0,0.6-0.1,0.8-0.3l3.6-3.6c1.2-1.2,1.7-2.8,1.6-4.4l1.3-1.2
		c1-1,2.4-1.5,3.8-1.5h15.5c2.8,0,5.4-1.1,7.4-3c0,0,0.1-0.1,0.1-0.1l10.5-12.6c1.7-2,1.4-4.9-0.6-6.6c-2-1.7-4.9-1.4-6.6,0.5
		l-1.1,1.2V15.7c0-0.6-0.5-1.2-1.2-1.2H27.7c-0.7,0-1.2,0.5-1.2,1.2V42c-4.5,1-8.2,3.8-10.1,7.9c-1.5-0.1-3,0.5-4.1,1.6l-3.6,3.6
		c-0.2,0.2-0.3,0.5-0.3,0.8c0,0.3,0.1,0.6,0.3,0.8L22,70.1z M56.7,16.9v24.2l-3.4,3.5c-0.9-1.1-2.2-1.7-3.7-1.7H36.1
		c-0.1,0-0.2,0-0.2-0.1c-1.8-0.7-3.8-1.1-5.8-1.1c-0.4,0-0.8,0-1.2,0V16.9H56.7z M27.9,44.2c2.4-0.3,4.8-0.1,7.1,0.8
		c0.4,0.1,0.7,0.2,1.1,0.2h13.6c1.3,0,2.4,1,2.4,2.3c0,1.3-1.1,2.3-2.4,2.3H39.5c-0.6,0-1.2,0.5-1.2,1.2c0,0.7,0.5,1.2,1.2,1.2h10.2
		c2.6,0,4.7-2.1,4.7-4.7c0-0.2,0-0.4,0-0.6c0.2-0.3,7.3-7.6,7.6-7.9c0,0,0,0,0.1-0.1c0.8-1,2.3-1.1,3.3-0.3c1,0.8,1.1,2.3,0.3,3.3
		L55.1,54.7c-1.5,1.5-3.6,2.3-5.7,2.3H33.9c-2,0-4,0.8-5.4,2.2L28,59.6c-0.2-0.3-0.4-0.6-0.7-0.9L20,51.5c-0.4-0.4-0.8-0.7-1.3-1
		C20.5,47.1,23.7,44.8,27.9,44.2z M14,53.2c1.2-1.2,3.2-1.2,4.4,0l7.2,7.2c1.2,1.2,1.2,3.2,0,4.4l-2.8,2.8L11.2,56L14,53.2z"/>
</g>
</svg>
