<?xml version="1.0" encoding="utf-8"?>
<!-- Generator: Adobe Illustrator 15.1.0, SVG Export Plug-In . SVG Version: 6.00 Build 0)  -->
<!DOCTYPE svg PUBLIC "-//W3C//DTD SVG 1.1//EN" "http://www.w3.org/Graphics/SVG/1.1/DTD/svg11.dtd">
<svg version="1.1" id="Capa_1" xmlns="http://www.w3.org/2000/svg" xmlns:xlink="http://www.w3.org/1999/xlink" x="0px" y="0px"
	 width="62.7px" height="53px" viewBox="0 0 62.7 53" enable-background="new 0 0 62.7 53" xml:space="preserve">
<path fill="#AD0718" d="M36.1,24.8V7.4c0-3.2,2.6-5.8,5.8-5.8h13.5c3.2,0,5.8,2.6,5.8,5.8v25.1c0,10.6-8.6,19.3-19.3,19.3
	c-2.1,0-3.9-1.7-3.9-3.9c0-2.1,1.8-3.8,3.9-3.9c6.4,0,11.5-5.2,11.5-11.6v-1.9H41.9C38.7,30.5,36.1,27.9,36.1,24.8z M7.2,30.5h11.6
	v1.9c0,6.4-5.2,11.5-11.5,11.6c-2.1,0-3.9,1.7-3.9,3.9c0,2.1,1.7,3.9,3.9,3.9c10.7,0,19.3-8.6,19.3-19.3V7.4c0-3.2-2.6-5.8-5.8-5.8
	H7.2C4,1.6,1.4,4.2,1.4,7.4l0,17.4C1.4,27.9,4,30.5,7.2,30.5z"/>
</svg>
