<?xml version="1.0" encoding="utf-8"?>
<!-- Generator: Adobe Illustrator 15.1.0, SVG Export Plug-In . SVG Version: 6.00 Build 0)  -->
<!DOCTYPE svg PUBLIC "-//W3C//DTD SVG 1.1//EN" "http://www.w3.org/Graphics/SVG/1.1/DTD/svg11.dtd">
<svg version="1.1" id="Capa_1" xmlns="http://www.w3.org/2000/svg" xmlns:xlink="http://www.w3.org/1999/xlink" x="0px" y="0px"
	 width="64.8px" height="54.8px" viewBox="0 0 64.8 54.8" enable-background="new 0 0 64.8 54.8" xml:space="preserve">
<path fill="#AD0718" d="M27.7,29.5v17.4c0,3.2-2.6,5.8-5.8,5.8H8.4c-3.2,0-5.8-2.6-5.8-5.8V21.8c0-10.6,8.6-19.3,19.3-19.3
	c2.1,0,3.9,1.7,3.9,3.9c0,2.1-1.8,3.8-3.9,3.9c-6.4,0-11.5,5.2-11.5,11.6v1.9h11.6C25.1,23.7,27.7,26.3,27.7,29.5z M56.6,23.7H45.1
	v-1.9c0-6.4,5.2-11.5,11.5-11.6c2.1,0,3.9-1.7,3.9-3.9c0-2.1-1.7-3.9-3.9-3.9c-10.7,0-19.3,8.6-19.3,19.3v25.1
	c0,3.2,2.6,5.8,5.8,5.8h13.5c3.2,0,5.8-2.6,5.8-5.8l0-17.4C62.4,26.3,59.8,23.7,56.6,23.7z"/>
</svg>
